<svg xmlns="http://www.w3.org/2000/svg" width="14" height="14" viewBox="0 0 14 14">
  <defs>
    <style>
      .cls-1 {
        fill: #fff;
        fill-opacity: 0.65;
        fill-rule: evenodd;
      }
    </style>
  </defs>
  <path id="Next_Icon" data-name="Next Icon" class="cls-1" d="M279,939a1,1,0,1,1-1,1A1,1,0,0,1,279,939Zm-10-6a1,1,0,1,1-1,1A1,1,0,0,1,269,933Zm0,12a1,1,0,1,1-1,1A1,1,0,0,1,269,945Zm-1-11h2v12h-2V934Zm1.447,12.894-0.894-1.788,10-6,0.894,1.788Zm10-7.788-0.894,1.788-10-6,0.894-1.789ZM269,946V934l10,6Zm12-13a1,1,0,0,1,1,1v12a1,1,0,0,1-2,0V934A1,1,0,0,1,281,933Z" transform="translate(-268 -933)"/>
</svg>
